<svg width="223" height="49" viewBox="0 0 223 49" fill="none" xmlns="http://www.w3.org/2000/svg">
<path d="M13.2134 31.318C12.3049 30.361 11.597 29.2318 11.1316 27.997C10.6662 26.7622 10.4526 25.4467 10.5034 24.128C10.4526 22.8094 10.6662 21.4939 11.1316 20.2591C11.597 19.0243 12.3049 17.8951 13.2134 16.938C15.1734 14.968 19.1534 13.248 26.5034 13.248C32.1634 13.248 36.4434 14.388 39.0034 15.728C39.0812 15.7692 39.1458 15.8313 39.19 15.9073C39.2342 15.9833 39.2562 16.0702 39.2534 16.158V19.728C39.2538 19.7704 39.243 19.812 39.2221 19.8488C39.2012 19.8856 39.1709 19.9162 39.1344 19.9375C39.0978 19.9588 39.0563 19.9701 39.014 19.9702C38.9717 19.9703 38.9301 19.9592 38.8934 19.938C35.0683 17.9502 30.8141 16.9304 26.5034 16.968C21.3934 16.968 18.1834 17.968 16.8134 19.368C16.2259 20.0058 15.7755 20.7572 15.49 21.576C15.2045 22.3947 15.0899 23.2633 15.1534 24.128C15.0946 24.9842 15.2145 25.8433 15.5054 26.6507C15.7964 27.4581 16.252 28.1962 16.8434 28.818C18.2034 30.188 21.3534 31.248 26.5034 31.248C30.7928 31.2918 35.0339 30.3402 38.8934 28.468C38.9312 28.4495 38.973 28.4408 39.0151 28.4428C39.0571 28.4447 39.0979 28.4573 39.1338 28.4792C39.1697 28.5011 39.1995 28.5318 39.2204 28.5683C39.2413 28.6048 39.2527 28.646 39.2534 28.688V32.058C39.255 32.1457 39.2325 32.2321 39.1885 32.308C39.1444 32.3838 39.0804 32.446 39.0034 32.488C36.4434 33.828 32.1634 34.968 26.5034 34.968C19.1534 35.008 15.1734 33.248 13.2134 31.318Z" fill="white"/>
<path d="M63.8429 13.8176L77.9029 34.1376C77.9284 34.1754 77.9432 34.2195 77.9455 34.2651C77.9478 34.3107 77.9375 34.356 77.9159 34.3962C77.8943 34.4363 77.862 34.4698 77.8227 34.493C77.7834 34.5162 77.7385 34.5282 77.6929 34.5276H73.1429C73.0626 34.5289 72.9832 34.5104 72.9117 34.4738C72.8402 34.4372 72.7788 34.3836 72.7329 34.3176L69.5529 29.6276H51.3929L48.2029 34.3176C48.158 34.3822 48.0982 34.4349 48.0285 34.4715C47.9589 34.508 47.8815 34.5273 47.8029 34.5276H43.5029C43.4573 34.5282 43.4124 34.5162 43.373 34.493C43.3337 34.4698 43.3015 34.4363 43.2799 34.3962C43.2582 34.356 43.248 34.3107 43.2503 34.2651C43.2526 34.2195 43.2673 34.1754 43.2929 34.1376L57.3129 13.8176C57.3559 13.7512 57.4153 13.6969 57.4853 13.6601C57.5554 13.6234 57.6338 13.6053 57.7129 13.6076H63.4429C63.522 13.6053 63.6004 13.6234 63.6704 13.6601C63.7405 13.6969 63.7999 13.7512 63.8429 13.8176ZM53.8429 25.9376H67.0529L60.5029 16.2476L53.8429 25.9376Z" fill="white"/>
<path d="M100.503 13.7277C106.333 13.7277 108.173 14.5577 109.663 16.0377C110.763 17.3015 111.327 18.9448 111.233 20.6177C111.274 21.4664 111.142 22.3147 110.845 23.1107C110.547 23.9066 110.091 24.6338 109.503 25.2477C108.373 26.3777 106.643 27.3277 102.663 27.5977L113.843 34.4577V34.5477H107.013C106.922 34.5496 106.832 34.5253 106.753 34.4777L95.9934 27.7077C95.9157 27.6589 95.8251 27.6346 95.7334 27.6377H87.6434V34.0377C87.6434 34.1676 87.5918 34.2923 87.4999 34.3842C87.408 34.4761 87.2834 34.5277 87.1534 34.5277H83.5034C83.3734 34.5277 83.2488 34.4761 83.1569 34.3842C83.065 34.2923 83.0134 34.1676 83.0134 34.0377V14.2477C83.0078 14.1805 83.0163 14.1129 83.0386 14.0493C83.0608 13.9856 83.0962 13.9274 83.1424 13.8784C83.1886 13.8293 83.2446 13.7905 83.3068 13.7646C83.369 13.7386 83.436 13.726 83.5034 13.7277H100.503ZM87.6434 24.0077H100.503C103.743 24.0077 105.143 23.5577 105.853 22.8477C106.118 22.5678 106.321 22.2352 106.448 21.8716C106.576 21.508 106.625 21.1216 106.593 20.7377C106.618 20.3357 106.56 19.9328 106.423 19.5543C106.285 19.1758 106.071 18.8297 105.793 18.5377C105.083 17.8277 103.863 17.4677 100.533 17.4677H87.6434V24.0077Z" fill="white"/>
<path d="M146.384 17.4677H133.584V34.0377C133.584 34.1659 133.534 34.2891 133.444 34.3807C133.355 34.4723 133.233 34.5251 133.104 34.5277H129.504C129.44 34.5277 129.377 34.515 129.318 34.4902C129.259 34.4655 129.206 34.4292 129.161 34.3836C129.117 34.3379 129.082 34.2838 129.058 34.2244C129.034 34.165 129.023 34.1016 129.024 34.0377V17.4677H116.224C116.094 17.4677 115.97 17.4161 115.878 17.3242C115.786 17.2323 115.734 17.1076 115.734 16.9777V14.2477C115.734 14.1838 115.747 14.1206 115.772 14.0617C115.797 14.0028 115.833 13.9494 115.878 13.9047C115.924 13.86 115.978 13.8248 116.038 13.8013C116.097 13.7778 116.161 13.7664 116.224 13.7677H146.424C146.488 13.7664 146.552 13.7778 146.611 13.8013C146.671 13.8248 146.725 13.86 146.77 13.9047C146.816 13.9494 146.852 14.0028 146.877 14.0617C146.902 14.1206 146.914 14.1838 146.914 14.2477V16.9777C146.914 17.042 146.902 17.1057 146.877 17.1652C146.852 17.2246 146.816 17.2787 146.771 17.3242C146.725 17.3697 146.671 17.4058 146.612 17.4304C146.552 17.455 146.489 17.4677 146.424 17.4677" fill="white"/>
<path d="M179.253 13.7276H153.203C153.139 13.7263 153.076 13.7377 153.016 13.7613C152.957 13.7848 152.903 13.8199 152.857 13.8646C152.811 13.9094 152.775 13.9627 152.75 14.0216C152.726 14.0805 152.713 14.1438 152.713 14.2076V24.3576C154.16 23.6878 155.707 23.2589 157.293 23.0876V17.4676H179.293C179.421 17.465 179.543 17.4122 179.633 17.3206C179.723 17.229 179.773 17.1059 179.773 16.9776V14.2476C179.773 14.1203 179.722 13.9982 179.632 13.9082C179.542 13.8182 179.42 13.7676 179.293 13.7676" fill="white"/>
<path d="M179.254 30.7876H157.254V26.2476C155.727 26.1401 154.194 26.1769 152.674 26.3576V34.0476C152.674 34.1119 152.687 34.1757 152.711 34.2351C152.736 34.2946 152.772 34.3486 152.817 34.3941C152.863 34.4396 152.917 34.4757 152.976 34.5003C153.036 34.5249 153.099 34.5376 153.164 34.5376H179.214C179.342 34.535 179.464 34.4822 179.554 34.3906C179.644 34.299 179.694 34.1758 179.694 34.0476V31.2476C179.694 31.1203 179.643 30.9982 179.553 30.9082C179.463 30.8182 179.341 30.7676 179.214 30.7676" fill="white"/>
<path d="M212.503 31.2477V34.0777C212.503 34.2076 212.452 34.3323 212.36 34.4242C212.268 34.5161 212.143 34.5677 212.013 34.5677H187.503C187.373 34.5677 187.249 34.5161 187.157 34.4242C187.065 34.3323 187.013 34.2076 187.013 34.0777V14.2477C187.008 14.1805 187.016 14.1129 187.039 14.0493C187.061 13.9856 187.096 13.9274 187.142 13.8784C187.189 13.8293 187.245 13.7905 187.307 13.7646C187.369 13.7386 187.436 13.726 187.503 13.7277H191.143C191.271 13.7277 191.393 13.7783 191.483 13.8683C191.573 13.9583 191.623 14.0804 191.623 14.2077V30.7277H212.063C212.127 30.7327 212.188 30.7502 212.244 30.7791C212.301 30.808 212.351 30.8478 212.392 30.8961C212.433 30.9444 212.463 31.0004 212.483 31.0607C212.502 31.1211 212.509 31.1846 212.503 31.2477Z" fill="white"/>
<mask id="mask0_727_47811" style="mask-type:luminance" maskUnits="userSpaceOnUse" x="148" y="21" width="28" height="6">
<path d="M158.733 21.5878C156.829 21.4876 154.928 21.8269 153.176 22.5795C151.425 23.3321 149.87 24.4778 148.633 25.9278C151.633 24.5878 155.863 24.4578 159.043 24.9278C162.223 25.3978 164.673 26.5078 167.843 26.3178C169.469 26.2016 171.045 25.706 172.444 24.8707C173.844 24.0354 175.029 22.8836 175.903 21.5078C170.133 25.4078 163.793 21.8578 158.733 21.5978" fill="white"/>
</mask>
<g mask="url(#mask0_727_47811)">
<mask id="mask1_727_47811" style="mask-type:luminance" maskUnits="userSpaceOnUse" x="147" y="15" width="31" height="18">
<path d="M174.552 15.4967L147.537 21.6641L149.994 32.4271L177.009 26.2597L174.552 15.4967Z" fill="white"/>
</mask>
<g mask="url(#mask1_727_47811)">
<path d="M177.004 22.8175L175.334 15.4775H177.004V22.8175Z" fill="#FEDBB4"/>
<path d="M177.002 23.2675L175.232 15.4775H175.332L177.002 22.8175V23.2675Z" fill="#FEDBB4"/>
<path d="M177.003 23.7175L175.123 15.4775H175.233L177.003 23.2675V23.7175Z" fill="#FCD9B3"/>
<path d="M177.003 24.1675L175.023 15.4775H175.123L177.003 23.7175V24.1675Z" fill="#FAD8B1"/>
<path d="M177.004 24.6175L174.924 15.4775H175.024L177.004 24.1675V24.6175Z" fill="#F8D6B0"/>
<path d="M177.003 25.0675L174.812 15.4775H174.923L177.003 24.6175V25.0675Z" fill="#F7D5AE"/>
<path d="M177.003 25.5175L174.713 15.4775H174.813L177.003 25.0675V25.5175Z" fill="#F5D3AD"/>
<path d="M177.003 25.9775L174.613 15.4775H174.713L177.003 25.5175V25.9775Z" fill="#F4D2AC"/>
<path d="M177.004 26.4275L174.504 15.4775H174.614L177.004 25.9775V26.4275Z" fill="#F2D0AA"/>
<path d="M177.002 26.8775L174.402 15.4775H174.502L177.002 26.4275V26.8775Z" fill="#F1CFA9"/>
<path d="M177.003 27.3275L174.303 15.4775H174.403L177.003 26.8775V27.3275Z" fill="#F0CEA8"/>
<path d="M177.003 27.7775L174.203 15.4775H174.303L177.003 27.3275V27.7775Z" fill="#EECDA7"/>
<path d="M177.004 28.2275L174.094 15.4775H174.204L177.004 27.7775V28.2275Z" fill="#EDCCA5"/>
<path d="M177.004 28.6775L173.994 15.4775H174.094L177.004 28.2275V28.6775Z" fill="#ECCBA4"/>
<path d="M177.003 29.1275L173.893 15.4775H173.993L177.003 28.6775V29.1275Z" fill="#EBC9A3"/>
<path d="M177.003 29.5875L173.783 15.4775H173.893L177.003 29.1275V29.5875Z" fill="#EAC8A2"/>
<path d="M177.004 30.0375L173.684 15.4775H173.784L177.004 29.5875V30.0375Z" fill="#E9C7A1"/>
<path d="M177.004 30.4875L173.584 15.4775H173.684L177.004 30.0375V30.4875Z" fill="#E8C69F"/>
<path d="M177.003 30.9375L173.473 15.4775H173.583L177.003 30.4875V30.9375Z" fill="#E7C59E"/>
<path d="M177.003 31.3875L173.373 15.4775H173.473L177.003 30.9375V31.3875Z" fill="#E5C49D"/>
<path d="M177.003 31.8375L173.273 15.4775H173.373L177.003 31.3875V31.8375Z" fill="#E4C39C"/>
<path d="M177.004 32.2875L173.164 15.4775H173.274L177.004 31.8375V32.2875Z" fill="#E3C29B"/>
<path d="M176.932 32.4175L173.062 15.4775H173.163L177.003 32.2875V32.4175H176.932Z" fill="#E2C19A"/>
<path d="M176.833 32.4175L172.963 15.4775H173.063L176.933 32.4175H176.833Z" fill="#E1C099"/>
<path d="M176.723 32.4175L172.863 15.4775H172.963L176.833 32.4175H176.723Z" fill="#E0BF98"/>
<path d="M176.624 32.4175L172.754 15.4775H172.864L176.724 32.4175H176.624Z" fill="#DFBE96"/>
<path d="M176.522 32.4175L172.652 15.4775H172.752L176.622 32.4175H176.522Z" fill="#DEBD95"/>
<path d="M176.413 32.4175L172.553 15.4775H172.653L176.523 32.4175H176.413Z" fill="#DDBC94"/>
<path d="M176.313 32.4175L172.443 15.4775H172.553L176.413 32.4175H176.313Z" fill="#DCBB93"/>
<path d="M176.214 32.4175L172.344 15.4775H172.444L176.314 32.4175H176.214Z" fill="#DBBA92"/>
<path d="M176.104 32.4175L172.244 15.4775H172.344L176.214 32.4175H176.104Z" fill="#DAB991"/>
<path d="M176.003 32.4175L172.133 15.4775H172.243L176.103 32.4175H176.003Z" fill="#D9B890"/>
<path d="M175.903 32.4175L172.033 15.4775H172.133L176.003 32.4175H175.903Z" fill="#D9B78F"/>
<path d="M175.804 32.4175L171.934 15.4775H172.034L175.904 32.4175H175.804Z" fill="#D8B68E"/>
<path d="M175.694 32.4175L171.834 15.4775H171.934L175.804 32.4175H175.694Z" fill="#D7B58D"/>
<path d="M175.593 32.4175L171.723 15.4775H171.833L175.693 32.4175H175.593Z" fill="#D6B48C"/>
<path d="M175.493 32.4175L171.623 15.4775H171.723L175.593 32.4175H175.493Z" fill="#D5B38B"/>
<path d="M175.383 32.4175L171.523 15.4775H171.623L175.493 32.4175H175.383Z" fill="#D4B28A"/>
<path d="M175.284 32.4175L171.414 15.4775H171.524L175.384 32.4175H175.284Z" fill="#D3B189"/>
<path d="M175.182 32.4175L171.312 15.4775H171.413L175.283 32.4175H175.182Z" fill="#D2B088"/>
<path d="M175.073 32.4175L171.213 15.4775H171.313L175.183 32.4175H175.073Z" fill="#D1AF87"/>
<path d="M174.974 32.4175L171.104 15.4775H171.214L175.074 32.4175H174.974Z" fill="#D0AE86"/>
<path d="M174.874 32.4175L171.004 15.4775H171.104L174.974 32.4175H174.874Z" fill="#CFAD85"/>
<path d="M174.772 32.4175L170.902 15.4775H171.002L174.872 32.4175H174.772Z" fill="#CEAC84"/>
<path d="M174.663 32.4175L170.793 15.4775H170.903L174.773 32.4175H174.663Z" fill="#CDAB83"/>
<path d="M174.563 32.4175L170.693 15.4775H170.793L174.663 32.4175H174.563Z" fill="#CCAA82"/>
<path d="M174.464 32.4175L170.594 15.4775H170.694L174.564 32.4175H174.464Z" fill="#CBA981"/>
<path d="M174.354 32.4175L170.494 15.4775H170.594L174.464 32.4175H174.354Z" fill="#CAA980"/>
<path d="M174.253 32.4175L170.383 15.4775H170.493L174.353 32.4175H174.253Z" fill="#C9A87F"/>
<path d="M174.153 32.4175L170.283 15.4775H170.383L174.253 32.4175H174.153Z" fill="#C8A77E"/>
<path d="M174.044 32.4175L170.184 15.4775H170.284L174.154 32.4175H174.044Z" fill="#C7A67D"/>
<path d="M173.942 32.4175L170.072 15.4775H170.182L174.042 32.4175H173.942Z" fill="#C6A57C"/>
<path d="M173.843 32.4175L169.973 15.4775H170.073L173.943 32.4175H173.843Z" fill="#C5A47B"/>
<path d="M173.743 32.4175L169.873 15.4775H169.973L173.843 32.4175H173.743Z" fill="#C4A37A"/>
<path d="M173.634 32.4175L169.764 15.4775H169.874L173.744 32.4175H173.634Z" fill="#C4A279"/>
<path d="M173.534 32.4175L169.664 15.4775H169.764L173.634 32.4175H173.534Z" fill="#C3A178"/>
<path d="M173.432 32.4175L169.562 15.4775H169.663L173.533 32.4175H173.432Z" fill="#C2A077"/>
<path d="M173.323 32.4175L169.463 15.4775H169.563L173.433 32.4175H173.323Z" fill="#C1A076"/>
<path d="M173.224 32.4175L169.354 15.4775H169.464L173.324 32.4175H173.224Z" fill="#C09F76"/>
<path d="M173.124 32.4175L169.254 15.4775H169.354L173.224 32.4175H173.124Z" fill="#BF9E75"/>
<path d="M173.012 32.4175L169.152 15.4775H169.252L173.122 32.4175H173.012Z" fill="#BE9D74"/>
<path d="M172.913 32.4175L169.043 15.4775H169.153L173.013 32.4175H172.913Z" fill="#BD9C73"/>
<path d="M172.813 32.4175L168.943 15.4775H169.043L172.913 32.4175H172.813Z" fill="#BD9B72"/>
<path d="M172.714 32.4175L168.844 15.4775H168.944L172.814 32.4175H172.714Z" fill="#BC9A71"/>
<path d="M172.604 32.4175L168.744 15.4775H168.844L172.714 32.4175H172.604Z" fill="#BB9970"/>
<path d="M172.503 32.4175L168.633 15.4775H168.743L172.603 32.4175H172.503Z" fill="#BA996F"/>
<path d="M172.403 32.4175L168.533 15.4775H168.633L172.503 32.4175H172.403Z" fill="#B9986E"/>
<path d="M172.294 32.4175L168.434 15.4775H168.534L172.404 32.4175H172.294Z" fill="#B8976D"/>
<path d="M172.192 32.4175L168.322 15.4775H168.432L172.292 32.4175H172.192Z" fill="#B7966D"/>
<path d="M172.093 32.4175L168.223 15.4775H168.323L172.193 32.4175H172.093Z" fill="#B6956C"/>
<path d="M171.983 32.4175L168.123 15.4775H168.223L172.093 32.4175H171.983Z" fill="#B6946B"/>
<path d="M171.884 32.4175L168.014 15.4775H168.124L171.984 32.4175H171.884Z" fill="#B5936A"/>
<path d="M171.784 32.4175L167.914 15.4775H168.014L171.884 32.4175H171.784Z" fill="#B49369"/>
<path d="M171.682 32.4175L167.812 15.4775H167.913L171.783 32.4175H171.682Z" fill="#B39268"/>
<path d="M171.573 32.4175L167.703 15.4775H167.813L171.683 32.4175H171.573Z" fill="#B29167"/>
<path d="M171.474 32.4175L167.604 15.4775H167.704L171.574 32.4175H171.474Z" fill="#B19067"/>
<path d="M171.374 32.4175L167.504 15.4775H167.604L171.474 32.4175H171.374Z" fill="#B08F66"/>
<path d="M171.262 32.4175L167.402 15.4775H167.502L171.372 32.4175H171.262Z" fill="#B08E65"/>
<path d="M171.163 32.4175L167.293 15.4775H167.403L171.263 32.4175H171.163Z" fill="#AF8E64"/>
<path d="M171.063 32.4175L167.193 15.4775H167.293L171.163 32.4175H171.063Z" fill="#AE8D63"/>
<path d="M170.954 32.4175L167.094 15.4775H167.194L171.064 32.4175H170.954Z" fill="#AD8C62"/>
<path d="M170.852 32.4175L166.982 15.4775H167.092L170.952 32.4175H170.852Z" fill="#AC8B61"/>
<path d="M170.753 32.4175L166.883 15.4775H166.983L170.853 32.4175H170.753Z" fill="#AB8A61"/>
<path d="M170.653 32.4175L166.783 15.4775H166.883L170.753 32.4175H170.653Z" fill="#AB8A60"/>
<path d="M170.544 32.4175L166.674 15.4775H166.784L170.654 32.4175H170.544Z" fill="#AA895F"/>
<path d="M170.442 32.4175L166.572 15.4775H166.672L170.542 32.4175H170.442Z" fill="#A9885E"/>
<path d="M170.343 32.4175L166.473 15.4775H166.573L170.443 32.4175H170.343Z" fill="#A8875D"/>
<path d="M170.233 32.4175L166.373 15.4775H166.473L170.343 32.4175H170.233Z" fill="#A7865D"/>
<path d="M170.134 32.4175L166.264 15.4775H166.374L170.234 32.4175H170.134Z" fill="#A6865C"/>
<path d="M170.034 32.4175L166.164 15.4775H166.264L170.134 32.4175H170.034Z" fill="#A6855B"/>
<path d="M169.923 32.4175L166.062 15.4775H166.163L170.033 32.4175H169.923Z" fill="#A5845A"/>
<path d="M169.823 32.4175L165.953 15.4775H166.063L169.923 32.4175H169.823Z" fill="#A48359"/>
<path d="M169.724 32.4175L165.854 15.4775H165.954L169.824 32.4175H169.724Z" fill="#A38359"/>
<path d="M169.614 32.4175L165.754 15.4775H165.854L169.724 32.4175H169.614Z" fill="#A28258"/>
<path d="M169.513 32.4175L165.643 15.4775H165.753L169.613 32.4175H169.513Z" fill="#A28157"/>
<path d="M169.413 32.4175L165.543 15.4775H165.643L169.513 32.4175H169.413Z" fill="#A18056"/>
<path d="M169.313 32.4175L165.443 15.4775H165.543L169.413 32.4175H169.313Z" fill="#A08055"/>
<path d="M169.204 32.4175L165.344 15.4775H165.444L169.314 32.4175H169.204Z" fill="#9F7F54"/>
<path d="M169.102 32.4175L165.232 15.4775H165.342L169.202 32.4175H169.102Z" fill="#9F7E54"/>
<path d="M169.003 32.4175L165.133 15.4775H165.233L169.103 32.4175H169.003Z" fill="#9E7D53"/>
<path d="M168.893 32.4175L165.033 15.4775H165.133L169.003 32.4175H168.893Z" fill="#9D7D52"/>
<path d="M168.794 32.4175L164.924 15.4775H165.034L168.894 32.4175H168.794Z" fill="#9C7C51"/>
<path d="M168.692 32.4175L164.822 15.4775H164.922L168.792 32.4175H168.692Z" fill="#9B7B50"/>
<path d="M168.583 32.4175L164.723 15.4775H164.823L168.693 32.4175H168.583Z" fill="#9B7A50"/>
<path d="M168.483 32.4175L164.613 15.4775H164.723L168.583 32.4175H168.483Z" fill="#9A7A4F"/>
<path d="M168.384 32.4175L164.514 15.4775H164.614L168.484 32.4175H168.384Z" fill="#99794E"/>
<path d="M168.284 32.4175L164.414 15.4775H164.514L168.384 32.4175H168.284Z" fill="#98784D"/>
<path d="M168.173 32.4175L164.303 15.4775H164.413L168.283 32.4175H168.173Z" fill="#98774C"/>
<path d="M168.073 32.4175L164.203 15.4775H164.303L168.173 32.4175H168.073Z" fill="#97774C"/>
<path d="M167.974 32.4175L164.104 15.4775H164.204L168.074 32.4175H167.974Z" fill="#96764B"/>
<path d="M167.864 32.4175L164.004 15.4775H164.104L167.974 32.4175H167.864Z" fill="#95754A"/>
<path d="M167.763 32.4175L163.893 15.4775H164.003L167.863 32.4175H167.763Z" fill="#947549"/>
<path d="M167.663 32.4175L163.793 15.4775H163.893L167.763 32.4175H167.663Z" fill="#947449"/>
<path d="M167.553 32.4175L163.693 15.4775H163.793L167.663 32.4175H167.553Z" fill="#937348"/>
<path d="M167.454 32.4175L163.584 15.4775H163.694L167.554 32.4175H167.454Z" fill="#927247"/>
<path d="M167.384 32.4175L163.514 15.4775H163.584L167.454 32.4175H167.384Z" fill="#927247"/>
<path d="M167.304 32.4175L163.434 15.4775H163.514L167.384 32.4175H167.304Z" fill="#937348"/>
<path d="M167.223 32.4175L163.363 15.4775H163.433L167.303 32.4175H167.223Z" fill="#947449"/>
<path d="M167.153 32.4175L163.283 15.4775H163.363L167.223 32.4175H167.153Z" fill="#947549"/>
<path d="M167.073 32.4175L163.213 15.4775H163.283L167.153 32.4175H167.073Z" fill="#95754A"/>
<path d="M167.003 32.4175L163.133 15.4775H163.213L167.073 32.4175H167.003Z" fill="#96764B"/>
<path d="M166.923 32.4175L163.053 15.4775H163.133L167.003 32.4175H166.923Z" fill="#97774C"/>
<path d="M166.842 32.4175L162.982 15.4775H163.052L166.922 32.4175H166.842Z" fill="#98774C"/>
<path d="M166.772 32.4175L162.902 15.4775H162.982L166.842 32.4175H166.772Z" fill="#98784D"/>
<path d="M166.694 32.4175L162.834 15.4775H162.904L166.774 32.4175H166.694Z" fill="#99794E"/>
<path d="M166.624 32.4175L162.754 15.4775H162.834L166.694 32.4175H166.624Z" fill="#9A7A4F"/>
<path d="M166.544 32.4175L162.684 15.4775H162.754L166.624 32.4175H166.544Z" fill="#9B7A50"/>
<path d="M166.474 32.4175L162.604 15.4775H162.684L166.544 32.4175H166.474Z" fill="#9B7B50"/>
<path d="M166.393 32.4175L162.523 15.4775H162.603L166.473 32.4175H166.393Z" fill="#9C7C51"/>
<path d="M166.313 32.4175L162.453 15.4775H162.523L166.393 32.4175H166.313Z" fill="#9D7D52"/>
<path d="M166.243 32.4175L162.373 15.4775H162.453L166.313 32.4175H166.243Z" fill="#9E7D53"/>
<path d="M166.163 32.4175L162.303 15.4775H162.373L166.243 32.4175H166.163Z" fill="#9F7E54"/>
<path d="M166.093 32.4175L162.223 15.4775H162.303L166.163 32.4175H166.093Z" fill="#9F7F54"/>
<path d="M166.012 32.4175L162.152 15.4775H162.222L166.092 32.4175H166.012Z" fill="#A08055"/>
<path d="M165.942 32.4175L162.072 15.4775H162.152L166.012 32.4175H165.942Z" fill="#A18056"/>
<path d="M165.864 32.4175L161.994 15.4775H162.074L165.944 32.4175H165.864Z" fill="#A28157"/>
<path d="M165.794 32.4175L161.924 15.4775H161.994L165.864 32.4175H165.794Z" fill="#A28258"/>
<path d="M165.714 32.4175L161.844 15.4775H161.924L165.794 32.4175H165.714Z" fill="#A38359"/>
<path d="M165.633 32.4175L161.773 15.4775H161.843L165.713 32.4175H165.633Z" fill="#A48359"/>
<path d="M165.563 32.4175L161.693 15.4775H161.773L165.633 32.4175H165.563Z" fill="#A5845A"/>
<path d="M165.483 32.4175L161.623 15.4775H161.693L165.563 32.4175H165.483Z" fill="#A6855B"/>
<path d="M165.413 32.4175L161.543 15.4775H161.623L165.483 32.4175H165.413Z" fill="#A6865C"/>
<path d="M165.333 32.4175L161.463 15.4775H161.543L165.413 32.4175H165.333Z" fill="#A7865D"/>
<path d="M165.263 32.4175L161.393 15.4775H161.463L165.333 32.4175H165.263Z" fill="#A8875D"/>
<path d="M165.182 32.4175L161.312 15.4775H161.393L165.262 32.4175H165.182Z" fill="#A9885E"/>
<path d="M165.104 32.4175L161.244 15.4775H161.314L165.184 32.4175H165.104Z" fill="#AA895F"/>
<path d="M165.034 32.4175L161.164 15.4775H161.244L165.104 32.4175H165.034Z" fill="#AB8A60"/>
<path d="M164.954 32.4175L161.094 15.4775H161.164L165.034 32.4175H164.954Z" fill="#AB8A61"/>
<path d="M164.884 32.4175L161.014 15.4775H161.094L164.954 32.4175H164.884Z" fill="#AC8B61"/>
<path d="M164.804 32.4175L160.934 15.4775H161.014L164.884 32.4175H164.804Z" fill="#AD8C62"/>
<path d="M164.733 32.4175L160.863 15.4775H160.933L164.803 32.4175H164.733Z" fill="#AE8D63"/>
<path d="M164.653 32.4175L160.783 15.4775H160.863L164.733 32.4175H164.653Z" fill="#AF8E64"/>
<path d="M164.573 32.4175L160.713 15.4775H160.783L164.653 32.4175H164.573Z" fill="#B08E65"/>
<path d="M164.503 32.4175L160.633 15.4775H160.713L164.573 32.4175H164.503Z" fill="#B08F66"/>
<path d="M164.423 32.4175L160.562 15.4775H160.633L164.503 32.4175H164.423Z" fill="#B19067"/>
<path d="M164.352 32.4175L160.482 15.4775H160.562L164.422 32.4175H164.352Z" fill="#B29167"/>
<path d="M164.274 32.4175L160.414 15.4775H160.484L164.354 32.4175H164.274Z" fill="#B39268"/>
<path d="M164.204 32.4175L160.334 15.4775H160.414L164.274 32.4175H164.204Z" fill="#B49369"/>
<path d="M164.124 32.4175L160.254 15.4775H160.334L164.204 32.4175H164.124Z" fill="#B5936A"/>
<path d="M164.044 32.4175L160.184 15.4775H160.254L164.124 32.4175H164.044Z" fill="#B6946B"/>
<path d="M163.974 32.4175L160.104 15.4775H160.184L164.044 32.4175H163.974Z" fill="#B6956C"/>
<path d="M163.893 32.4175L160.033 15.4775H160.103L163.973 32.4175H163.893Z" fill="#B7966D"/>
<path d="M163.823 32.4175L159.953 15.4775H160.033L163.893 32.4175H163.823Z" fill="#B8976D"/>
<path d="M163.743 32.4175L159.883 15.4775H159.953L163.823 32.4175H163.743Z" fill="#B9986E"/>
<path d="M163.673 32.4175L159.803 15.4775H159.883L163.743 32.4175H163.673Z" fill="#BA996F"/>
<path d="M163.593 32.4175L159.723 15.4775H159.803L163.673 32.4175H163.593Z" fill="#BB9970"/>
<path d="M163.512 32.4175L159.652 15.4775H159.722L163.592 32.4175H163.512Z" fill="#BC9A71"/>
<path d="M163.442 32.4175L159.572 15.4775H159.652L163.512 32.4175H163.442Z" fill="#BD9B72"/>
<path d="M163.364 32.4175L159.504 15.4775H159.574L163.444 32.4175H163.364Z" fill="#BD9C73"/>
<path d="M163.294 32.4175L159.424 15.4775H159.504L163.364 32.4175H163.294Z" fill="#BE9D74"/>
<path d="M163.214 32.4175L159.344 15.4775H159.424L163.294 32.4175H163.214Z" fill="#BF9E75"/>
<path d="M163.143 32.4175L159.273 15.4775H159.343L163.213 32.4175H163.143Z" fill="#C09F76"/>
<path d="M163.063 32.4175L159.193 15.4775H159.273L163.143 32.4175H163.063Z" fill="#C1A076"/>
<path d="M162.993 32.4175L159.123 15.4775H159.193L163.063 32.4175H162.993Z" fill="#C2A077"/>
<path d="M162.913 32.4175L159.043 15.4775H159.123L162.993 32.4175H162.913Z" fill="#C3A178"/>
<path d="M162.833 32.4175L158.973 15.4775H159.043L162.913 32.4175H162.833Z" fill="#C4A279"/>
<path d="M162.763 32.4175L158.893 15.4775H158.973L162.833 32.4175H162.763Z" fill="#C4A37A"/>
<path d="M162.682 32.4175L158.822 15.4775H158.892L162.762 32.4175H162.682Z" fill="#C5A47B"/>
<path d="M162.614 32.4175L158.744 15.4775H158.824L162.684 32.4175H162.614Z" fill="#C6A57C"/>
<path d="M162.534 32.4175L158.664 15.4775H158.744L162.614 32.4175H162.534Z" fill="#C7A67D"/>
<path d="M162.464 32.4175L158.594 15.4775H158.664L162.534 32.4175H162.464Z" fill="#C8A77E"/>
<path d="M162.384 32.4175L158.514 15.4775H158.594L162.464 32.4175H162.384Z" fill="#C9A87F"/>
<path d="M162.313 32.4175L158.443 15.4775H158.513L162.383 32.4175H162.313Z" fill="#CAA980"/>
<path d="M162.233 32.4175L158.363 15.4775H158.443L162.313 32.4175H162.233Z" fill="#CBA981"/>
<path d="M162.153 32.4175L158.293 15.4775H158.363L162.233 32.4175H162.153Z" fill="#CCAA82"/>
<path d="M162.083 32.4175L158.213 15.4775H158.293L162.153 32.4175H162.083Z" fill="#CDAB83"/>
<path d="M162.003 32.4175L158.133 15.4775H158.213L162.083 32.4175H162.003Z" fill="#CEAC84"/>
<path d="M161.932 32.4175L158.062 15.4775H158.133L162.003 32.4175H161.932Z" fill="#CFAD85"/>
<path d="M161.852 32.4175L157.982 15.4775H158.062L161.932 32.4175H161.852Z" fill="#D0AE86"/>
<path d="M161.784 32.4175L157.914 15.4775H157.984L161.854 32.4175H161.784Z" fill="#D1AF87"/>
<path d="M161.704 32.4175L157.834 15.4775H157.914L161.784 32.4175H161.704Z" fill="#D2B088"/>
<path d="M161.624 32.4175L157.764 15.4775H157.834L161.704 32.4175H161.624Z" fill="#D3B189"/>
<path d="M161.554 32.4175L157.684 15.4775H157.764L161.624 32.4175H161.554Z" fill="#D4B28A"/>
<path d="M161.474 32.4175L157.604 15.4775H157.684L161.554 32.4175H161.474Z" fill="#D5B38B"/>
<path d="M161.403 32.4175L157.533 15.4775H157.603L161.473 32.4175H161.403Z" fill="#D6B48C"/>
<path d="M161.323 32.4175L157.453 15.4775H157.533L161.403 32.4175H161.323Z" fill="#D7B58D"/>
<path d="M161.253 32.4175L157.383 15.4775H157.453L161.323 32.4175H161.253Z" fill="#D8B68E"/>
<path d="M161.173 32.4175L157.303 15.4775H157.383L161.253 32.4175H161.173Z" fill="#D9B78F"/>
<path d="M161.092 32.4175L157.232 15.4775H157.302L161.172 32.4175H161.092Z" fill="#D9B890"/>
<path d="M161.022 32.4175L157.152 15.4775H157.232L161.092 32.4175H161.022Z" fill="#DAB991"/>
<path d="M160.942 32.4175L157.072 15.4775H157.152L161.022 32.4175H160.942Z" fill="#DBBA92"/>
<path d="M160.874 32.4175L157.004 15.4775H157.074L160.944 32.4175H160.874Z" fill="#DCBB93"/>
<path d="M160.794 32.4175L156.924 15.4775H157.004L160.874 32.4175H160.794Z" fill="#DDBC94"/>
<path d="M160.724 32.4175L156.854 15.4775H156.924L160.794 32.4175H160.724Z" fill="#DEBD95"/>
<path d="M160.643 32.4175L156.773 15.4775H156.853L160.723 32.4175H160.643Z" fill="#DFBE96"/>
<path d="M160.563 32.4175L156.703 15.4775H156.773L160.643 32.4175H160.563Z" fill="#E0BF98"/>
<path d="M160.493 32.4175L156.623 15.4775H156.703L160.563 32.4175H160.493Z" fill="#E1C099"/>
<path d="M160.413 32.4175L156.543 15.4775H156.623L160.493 32.4175H160.413Z" fill="#E2C19A"/>
<path d="M160.343 32.4175L156.473 15.4775H156.543L160.413 32.4175H160.343Z" fill="#E3C29B"/>
<path d="M160.263 32.4175L156.393 15.4775H156.473L160.343 32.4175H160.263Z" fill="#E4C39C"/>
<path d="M160.192 32.4175L156.322 15.4775H156.392L160.262 32.4175H160.192Z" fill="#E5C49D"/>
<path d="M160.114 32.4175L156.244 15.4775H156.324L160.194 32.4175H160.114Z" fill="#E7C59E"/>
<path d="M160.034 32.4175L156.174 15.4775H156.244L160.114 32.4175H160.034Z" fill="#E8C69F"/>
<path d="M159.964 32.4175L156.094 15.4775H156.174L160.034 32.4175H159.964Z" fill="#E9C7A1"/>
<path d="M159.883 32.4175L156.023 15.4775H156.093L159.963 32.4175H159.883Z" fill="#EAC8A2"/>
<path d="M159.813 32.4175L155.943 15.4775H156.023L159.883 32.4175H159.813Z" fill="#EBC9A3"/>
<path d="M159.733 32.4175L155.863 15.4775H155.943L159.813 32.4175H159.733Z" fill="#ECCBA4"/>
<path d="M159.663 32.4175L155.793 15.4775H155.863L159.733 32.4175H159.663Z" fill="#EDCCA5"/>
<path d="M159.583 32.4175L155.713 15.4775H155.793L159.663 32.4175H159.583Z" fill="#EECDA7"/>
<path d="M159.503 32.4175L155.643 15.4775H155.713L159.583 32.4175H159.503Z" fill="#F0CEA8"/>
<path d="M159.432 32.4175L155.562 15.4775H155.643L159.503 32.4175H159.432Z" fill="#F1CFA9"/>
<path d="M159.354 32.4175L155.494 15.4775H155.564L159.434 32.4175H159.354Z" fill="#F2D0AA"/>
<path d="M159.284 32.4175L155.414 15.4775H155.494L159.354 32.4175H159.284Z" fill="#F4D2AC"/>
<path d="M159.204 32.4175L155.344 15.4775H155.414L159.284 32.4175H159.204Z" fill="#F5D3AD"/>
<path d="M159.134 32.4175L155.264 15.4775H155.344L159.204 32.4175H159.134Z" fill="#F7D5AE"/>
<path d="M159.054 32.4175L155.184 15.4775H155.264L159.134 32.4175H159.054Z" fill="#F8D6B0"/>
<path d="M158.973 32.4175L155.113 15.4775H155.183L159.053 32.4175H158.973Z" fill="#FAD8B1"/>
<path d="M158.903 32.4175L155.033 15.4775H155.113L158.973 32.4175H158.903Z" fill="#FCD9B3"/>
<path d="M158.823 32.4175L154.963 15.4775H155.033L158.903 32.4175H158.823Z" fill="#FEDBB4"/>
<path d="M158.774 32.4175L154.914 15.4775H154.964L158.824 32.4175H158.774Z" fill="#FEDBB4"/>
<path d="M158.723 32.4175L154.863 15.4775H154.913L158.773 32.4175H158.723Z" fill="#FCD9B3"/>
<path d="M158.673 32.4175L154.812 15.4775H154.863L158.723 32.4175H158.673Z" fill="#FAD8B1"/>
<path d="M158.624 32.4175L154.764 15.4775H154.814L158.674 32.4175H158.624Z" fill="#F8D6B0"/>
<path d="M158.573 32.4175L154.713 15.4775H154.763L158.623 32.4175H158.573Z" fill="#F7D5AE"/>
<path d="M158.524 32.4175L154.664 15.4775H154.714L158.574 32.4175H158.524Z" fill="#F5D3AD"/>
<path d="M158.474 32.4175L154.604 15.4775H154.664L158.524 32.4175H158.474Z" fill="#F4D2AC"/>
<path d="M158.423 32.4175L154.562 15.4775H154.603L158.473 32.4175H158.423Z" fill="#F2D0AA"/>
<path d="M158.374 32.4175L154.504 15.4775H154.564L158.424 32.4175H158.374Z" fill="#F1CFA9"/>
<path d="M158.323 32.4175L154.463 15.4775H154.503L158.373 32.4175H158.323Z" fill="#F0CEA8"/>
<path d="M158.274 32.4175L154.414 15.4775H154.464L158.324 32.4175H158.274Z" fill="#EECDA7"/>
<path d="M158.224 32.4175L154.354 15.4775H154.414L158.274 32.4175H158.224Z" fill="#EDCCA5"/>
<path d="M158.173 32.4175L154.303 15.4775H154.353L158.223 32.4175H158.173Z" fill="#ECCBA4"/>
<path d="M158.124 32.4175L154.254 15.4775H154.304L158.174 32.4175H158.124Z" fill="#EBC9A3"/>
<path d="M158.073 32.4175L154.203 15.4775H154.253L158.123 32.4175H158.073Z" fill="#EAC8A2"/>
<path d="M158.022 32.4175L154.152 15.4775H154.202L158.072 32.4175H158.022Z" fill="#E9C7A1"/>
<path d="M157.974 32.4175L154.104 15.4775H154.154L158.024 32.4175H157.974Z" fill="#E8C69F"/>
<path d="M157.923 32.4175L154.053 15.4775H154.103L157.973 32.4175H157.923Z" fill="#E7C59E"/>
<path d="M157.874 32.4175L154.004 15.4775H154.054L157.924 32.4175H157.874Z" fill="#E5C49D"/>
<path d="M157.823 32.4175L153.953 15.4775H154.003L157.873 32.4175H157.823Z" fill="#E4C39C"/>
<path d="M157.772 32.4175L153.902 15.4775H153.952L157.822 32.4175H157.772Z" fill="#E3C29B"/>
<path d="M157.724 32.4175L153.854 15.4775H153.904L157.774 32.4175H157.724Z" fill="#E2C19A"/>
<path d="M157.673 32.4175L153.803 15.4775H153.853L157.723 32.4175H157.673Z" fill="#E1C099"/>
<path d="M157.624 32.4175L153.754 15.4775H153.804L157.674 32.4175H157.624Z" fill="#E0BF98"/>
<path d="M157.573 32.4175L153.703 15.4775H153.753L157.623 32.4175H157.573Z" fill="#DFBE96"/>
<path d="M157.522 32.4175L153.652 15.4775H153.702L157.572 32.4175H157.522Z" fill="#DEBD95"/>
<path d="M157.474 32.4175L153.604 15.4775H153.654L157.524 32.4175H157.474Z" fill="#DDBC94"/>
<path d="M157.423 32.4175L153.553 15.4775H153.603L157.473 32.4175H157.423Z" fill="#DCBB93"/>
<path d="M157.374 32.4175L153.504 15.4775H153.554L157.424 32.4175H157.374Z" fill="#DBBA92"/>
<path d="M157.323 32.4175L153.453 15.4775H153.503L157.373 32.4175H157.323Z" fill="#DAB991"/>
<path d="M157.272 32.4175L153.402 15.4775H153.452L157.322 32.4175H157.272Z" fill="#D9B890"/>
<path d="M157.224 32.4175L153.354 15.4775H153.404L157.274 32.4175H157.224Z" fill="#D9B78F"/>
<path d="M157.173 32.4175L153.303 15.4775H153.353L157.223 32.4175H157.173Z" fill="#D8B68E"/>
<path d="M157.124 32.4175L153.254 15.4775H153.304L157.174 32.4175H157.124Z" fill="#D7B58D"/>
<path d="M157.073 32.4175L153.203 15.4775H153.253L157.123 32.4175H157.073Z" fill="#D6B48C"/>
<path d="M157.022 32.4175L153.152 15.4775H153.202L157.072 32.4175H157.022Z" fill="#D5B38B"/>
<path d="M156.974 32.4175L153.104 15.4775H153.154L157.024 32.4175H156.974Z" fill="#D4B28A"/>
<path d="M156.923 32.4175L153.053 15.4775H153.103L156.973 32.4175H156.923Z" fill="#D3B189"/>
<path d="M156.874 32.4175L153.004 15.4775H153.054L156.924 32.4175H156.874Z" fill="#D2B088"/>
<path d="M156.823 32.4175L152.953 15.4775H153.003L156.873 32.4175H156.823Z" fill="#D1AF87"/>
<path d="M156.772 32.4175L152.902 15.4775H152.952L156.822 32.4175H156.772Z" fill="#D0AE86"/>
<path d="M156.724 32.4175L152.854 15.4775H152.904L156.774 32.4175H156.724Z" fill="#CFAD85"/>
<path d="M156.673 32.4175L152.803 15.4775H152.853L156.723 32.4175H156.673Z" fill="#CEAC84"/>
<path d="M156.624 32.4175L152.754 15.4775H152.804L156.674 32.4175H156.624Z" fill="#CDAB83"/>
<path d="M156.573 32.4175L152.703 15.4775H152.753L156.623 32.4175H156.573Z" fill="#CCAA82"/>
<path d="M156.522 32.4175L152.652 15.4775H152.702L156.572 32.4175H156.522Z" fill="#CBA981"/>
<path d="M156.474 32.4175L152.604 15.4775H152.654L156.524 32.4175H156.474Z" fill="#CAA980"/>
<path d="M156.423 32.4175L152.553 15.4775H152.603L156.473 32.4175H156.423Z" fill="#C9A87F"/>
<path d="M156.374 32.4175L152.504 15.4775H152.554L156.424 32.4175H156.374Z" fill="#C8A77E"/>
<path d="M156.323 32.4175L152.453 15.4775H152.503L156.373 32.4175H156.323Z" fill="#C7A67D"/>
<path d="M156.272 32.4175L152.402 15.4775H152.452L156.322 32.4175H156.272Z" fill="#C6A57C"/>
<path d="M156.224 32.4175L152.354 15.4775H152.404L156.274 32.4175H156.224Z" fill="#C5A47B"/>
<path d="M156.173 32.4175L152.303 15.4775H152.353L156.223 32.4175H156.173Z" fill="#C4A37A"/>
<path d="M156.124 32.4175L152.254 15.4775H152.304L156.174 32.4175H156.124Z" fill="#C4A279"/>
<path d="M156.073 32.4175L152.203 15.4775H152.253L156.123 32.4175H156.073Z" fill="#C3A178"/>
<path d="M156.022 32.4175L152.152 15.4775H152.202L156.072 32.4175H156.022Z" fill="#C2A077"/>
<path d="M155.974 32.4175L152.104 15.4775H152.154L156.024 32.4175H155.974Z" fill="#C1A076"/>
<path d="M155.913 32.4175L152.053 15.4775H152.103L155.973 32.4175H155.913Z" fill="#C09F76"/>
<path d="M155.874 32.4175L152.004 15.4775H152.054L155.914 32.4175H155.874Z" fill="#BF9E75"/>
<path d="M155.813 32.4175L151.953 15.4775H152.003L155.873 32.4175H155.813Z" fill="#BE9D74"/>
<path d="M155.762 32.4175L151.902 15.4775H151.952L155.812 32.4175H155.762Z" fill="#BD9C73"/>
<path d="M155.724 32.4175L151.854 15.4775H151.904L155.764 32.4175H155.724Z" fill="#BD9B72"/>
<path d="M155.663 32.4175L151.803 15.4775H151.853L155.723 32.4175H155.663Z" fill="#BC9A71"/>
<path d="M155.614 32.4175L151.754 15.4775H151.804L155.664 32.4175H155.614Z" fill="#BB9970"/>
<path d="M155.563 32.4175L151.703 15.4775H151.753L155.613 32.4175H155.563Z" fill="#BA996F"/>
<path d="M155.512 32.4175L151.652 15.4775H151.702L155.562 32.4175H155.512Z" fill="#B9986E"/>
<path d="M155.464 32.4175L151.604 15.4775H151.654L155.514 32.4175H155.464Z" fill="#B8976D"/>
<path d="M155.413 32.4175L151.553 15.4775H151.603L155.463 32.4175H155.413Z" fill="#B7966D"/>
<path d="M155.364 32.4175L151.504 15.4775H151.554L155.414 32.4175H155.364Z" fill="#B6956C"/>
<path d="M155.313 32.4175L151.453 15.4775H151.503L155.363 32.4175H155.313Z" fill="#B6946B"/>
<path d="M155.262 32.4175L151.402 15.4775H151.452L155.312 32.4175H155.262Z" fill="#B5936A"/>
<path d="M155.214 32.4175L151.354 15.4775H151.404L155.264 32.4175H155.214Z" fill="#B49369"/>
<path d="M155.163 32.4175L151.303 15.4775H151.353L155.213 32.4175H155.163Z" fill="#B39268"/>
<path d="M155.114 32.4175L151.254 15.4775H151.304L155.164 32.4175H155.114Z" fill="#B29167"/>
<path d="M155.063 32.4175L151.193 15.4775H151.253L155.113 32.4175H155.063Z" fill="#B19067"/>
<path d="M155.012 32.4175L151.152 15.4775H151.192L155.062 32.4175H155.012Z" fill="#B08F66"/>
<path d="M154.964 32.4175L151.094 15.4775H151.154L155.014 32.4175H154.964Z" fill="#B08E65"/>
<path d="M154.913 32.4175L151.043 15.4775H151.093L154.963 32.4175H154.913Z" fill="#AF8E64"/>
<path d="M154.864 32.4175L151.004 15.4775H151.044L154.914 32.4175H154.864Z" fill="#AE8D63"/>
<path d="M154.813 32.4175L150.943 15.4775H151.003L154.863 32.4175H154.813Z" fill="#AD8C62"/>
<path d="M154.763 32.4175L150.893 15.4775H150.943L154.813 32.4175H154.763Z" fill="#AC8B61"/>
<path d="M154.714 32.4175L150.844 15.4775H150.894L154.764 32.4175H154.714Z" fill="#AB8A61"/>
<path d="M154.663 32.4175L150.793 15.4775H150.843L154.713 32.4175H154.663Z" fill="#AB8A60"/>
<path d="M154.614 32.4175L150.744 15.4775H150.794L154.664 32.4175H154.614Z" fill="#AA895F"/>
<path d="M154.563 32.4175L150.693 15.4775H150.743L154.613 32.4175H154.563Z" fill="#A9885E"/>
<path d="M154.513 32.4175L150.643 15.4775H150.693L154.563 32.4175H154.513Z" fill="#A8875D"/>
<path d="M154.464 32.4175L150.594 15.4775H150.644L154.514 32.4175H154.464Z" fill="#A7865D"/>
<path d="M154.413 32.4175L150.543 15.4775H150.593L154.463 32.4175H154.413Z" fill="#A6865C"/>
<path d="M154.364 32.4175L150.494 15.4775H150.544L154.414 32.4175H154.364Z" fill="#A6855B"/>
<path d="M154.313 32.4175L150.443 15.4775H150.493L154.363 32.4175H154.313Z" fill="#A5845A"/>
<path d="M154.263 32.4175L150.393 15.4775H150.443L154.313 32.4175H154.263Z" fill="#A48359"/>
<path d="M154.214 32.4175L150.344 15.4775H150.394L154.264 32.4175H154.214Z" fill="#A38359"/>
<path d="M154.163 32.4175L150.293 15.4775H150.343L154.213 32.4175H154.163Z" fill="#A28258"/>
<path d="M154.114 32.4175L150.244 15.4775H150.294L154.164 32.4175H154.114Z" fill="#A28157"/>
<path d="M154.063 32.4175L150.193 15.4775H150.243L154.113 32.4175H154.063Z" fill="#A18056"/>
<path d="M154.013 32.4175L150.143 15.4775H150.193L154.063 32.4175H154.013Z" fill="#A08055"/>
<path d="M153.964 32.4175L150.094 15.4775H150.144L154.014 32.4175H153.964Z" fill="#9F7F54"/>
<path d="M153.913 32.4175L150.043 15.4775H150.093L153.963 32.4175H153.913Z" fill="#9F7E54"/>
<path d="M153.864 32.4175L149.994 15.4775H150.044L153.914 32.4175H153.864Z" fill="#9E7D53"/>
<path d="M153.813 32.4175L149.943 15.4775H149.993L153.863 32.4175H153.813Z" fill="#9D7D52"/>
<path d="M153.763 32.4175L149.893 15.4775H149.943L153.813 32.4175H153.763Z" fill="#9C7C51"/>
<path d="M153.714 32.4175L149.844 15.4775H149.894L153.764 32.4175H153.714Z" fill="#9B7B50"/>
<path d="M153.663 32.4175L149.793 15.4775H149.843L153.713 32.4175H153.663Z" fill="#9B7A50"/>
<path d="M153.614 32.4175L149.744 15.4775H149.794L153.664 32.4175H153.614Z" fill="#9A7A4F"/>
<path d="M153.563 32.4175L149.693 15.4775H149.743L153.613 32.4175H153.563Z" fill="#99794E"/>
<path d="M153.513 32.4175L149.643 15.4775H149.693L153.563 32.4175H153.513Z" fill="#98784D"/>
<path d="M153.464 32.4175L149.594 15.4775H149.644L153.514 32.4175H153.464Z" fill="#98774C"/>
<path d="M153.413 32.4175L149.543 15.4775H149.593L153.463 32.4175H153.413Z" fill="#97774C"/>
<path d="M153.364 32.4175L149.494 15.4775H149.544L153.414 32.4175H153.364Z" fill="#96764B"/>
<path d="M153.313 32.4175L149.443 15.4775H149.493L153.363 32.4175H153.313Z" fill="#95754A"/>
<path d="M153.263 32.4175L149.393 15.4775H149.443L153.313 32.4175H153.263Z" fill="#947549"/>
<path d="M153.214 32.4175L149.344 15.4775H149.394L153.264 32.4175H153.214Z" fill="#947449"/>
<path d="M153.163 32.4175L149.293 15.4775H149.343L153.213 32.4175H153.163Z" fill="#937348"/>
<path d="M153.114 32.4175L149.244 15.4775H149.294L153.164 32.4175H153.114Z" fill="#927247"/>
<path d="M153.044 32.4175L149.174 15.4775H149.244L153.114 32.4175H153.044Z" fill="#927247"/>
<path d="M152.974 32.4175L149.104 15.4775H149.174L153.044 32.4175H152.974Z" fill="#937348"/>
<path d="M152.903 32.4175L149.033 15.4775H149.103L152.973 32.4175H152.903Z" fill="#947449"/>
<path d="M152.843 32.4175L148.973 15.4775H149.033L152.903 32.4175H152.843Z" fill="#947549"/>
<path d="M152.772 32.4175L148.902 15.4775H148.972L152.842 32.4175H152.772Z" fill="#95754A"/>
<path d="M152.704 32.4175L148.834 15.4775H148.904L152.774 32.4175H152.704Z" fill="#96764B"/>
<path d="M152.634 32.4175L148.764 15.4775H148.834L152.704 32.4175H152.634Z" fill="#97774C"/>
<path d="M152.563 32.4175L148.693 15.4775H148.763L152.633 32.4175H152.563Z" fill="#98774C"/>
<path d="M152.493 32.4175L148.633 15.4775H148.693L152.563 32.4175H152.493Z" fill="#98784D"/>
<path d="M152.432 32.4175L148.562 15.4775H148.633L152.493 32.4175H152.432Z" fill="#99794E"/>
<path d="M152.364 32.4175L148.494 15.4775H148.564L152.434 32.4175H152.364Z" fill="#9A7A4F"/>
<path d="M152.294 32.4175L148.424 15.4775H148.494L152.364 32.4175H152.294Z" fill="#9B7A50"/>
<path d="M152.224 32.4175L148.354 15.4775H148.424L152.294 32.4175H152.224Z" fill="#9B7B50"/>
<path d="M152.153 32.4175L148.293 15.4775H148.353L152.223 32.4175H152.153Z" fill="#9C7C51"/>
<path d="M152.093 32.4175L148.223 15.4775H148.293L152.153 32.4175H152.093Z" fill="#9D7D52"/>
<path d="M152.022 32.4175L148.152 15.4775H148.222L152.092 32.4175H152.022Z" fill="#9E7D53"/>
<path d="M151.954 32.4175L148.084 15.4775H148.154L152.024 32.4175H151.954Z" fill="#9F7E54"/>
<path d="M151.884 32.4175L148.014 15.4775H148.084L151.954 32.4175H151.884Z" fill="#9F7F54"/>
<path d="M151.813 32.4175L147.943 15.4775H148.013L151.883 32.4175H151.813Z" fill="#A08055"/>
<path d="M151.753 32.4175L147.883 15.4775H147.943L151.813 32.4175H151.753Z" fill="#A18056"/>
<path d="M151.682 32.4175L147.812 15.4775H147.883L151.753 32.4175H151.682Z" fill="#A28157"/>
<path d="M151.614 32.4175L147.744 15.4775H147.814L151.684 32.4175H151.614Z" fill="#A28258"/>
<path d="M151.544 32.4175L147.674 15.4775H147.744L151.614 32.4175H151.544Z" fill="#A38359"/>
<path d="M151.474 32.4175L147.604 15.4775H147.674L151.544 32.4175H151.474Z" fill="#A48359"/>
<path d="M151.403 32.4175L147.543 15.4775H147.603L151.473 32.4175H151.403Z" fill="#A5845A"/>
<path d="M151.343 32.4175L147.533 15.7375V15.4775H147.543L151.403 32.4175H151.343Z" fill="#A6855B"/>
<path d="M151.273 32.4173L147.533 16.0373V15.7373L151.343 32.4173H151.273Z" fill="#A6865C"/>
<path d="M151.203 32.4171L147.533 16.3271V16.0371L151.273 32.4171H151.203Z" fill="#A7865D"/>
<path d="M151.133 32.4171L147.533 16.6271V16.3271L151.203 32.4171H151.133Z" fill="#A8875D"/>
<path d="M151.063 32.4179L147.533 16.9279V16.6279L151.133 32.4179H151.063Z" fill="#A9885E"/>
<path d="M151.003 32.4177L147.533 17.2277V16.9277L151.063 32.4177H151.003Z" fill="#AA895F"/>
<path d="M150.933 32.4175L147.533 17.5275V17.2275L151.003 32.4175H150.933Z" fill="#AB8A60"/>
<path d="M150.863 32.4173L147.533 17.8273V17.5273L150.933 32.4173H150.863Z" fill="#AB8A61"/>
<path d="M150.793 32.4171L147.533 18.1171V17.8271L150.863 32.4171H150.793Z" fill="#AC8B61"/>
<path d="M150.723 32.4172L147.533 18.4172V18.1172L150.793 32.4172H150.723Z" fill="#AD8C62"/>
<path d="M150.663 32.418L147.533 18.718V18.418L150.723 32.418H150.663Z" fill="#AE8D63"/>
<path d="M150.593 32.4178L147.533 19.0178V18.7178L150.663 32.4178H150.593Z" fill="#AF8E64"/>
<path d="M150.523 32.4176L147.533 19.3176V19.0176L150.593 32.4176H150.523Z" fill="#B08E65"/>
<path d="M150.453 32.4174L147.533 19.6074V19.3174L150.523 32.4174H150.453Z" fill="#B08F66"/>
<path d="M150.383 32.4174L147.533 19.9074V19.6074L150.453 32.4174H150.383Z" fill="#B19067"/>
<path d="M150.313 32.4172L147.533 20.2072V19.9072L150.383 32.4172H150.313Z" fill="#B29167"/>
<path d="M150.253 32.418L147.533 20.508V20.208L150.313 32.418H150.253Z" fill="#B39268"/>
<path d="M150.183 32.4178L147.533 20.8078V20.5078L150.253 32.4178H150.183Z" fill="#B49369"/>
<path d="M150.113 32.4176L147.533 21.1076V20.8076L150.183 32.4176H150.113Z" fill="#B5936A"/>
<path d="M150.043 32.4174L147.533 21.3974V21.1074L150.113 32.4174H150.043Z" fill="#B6946B"/>
<path d="M149.973 32.4175L147.533 21.6975V21.3975L150.043 32.4175H149.973Z" fill="#B6956C"/>
<path d="M149.913 32.4173L147.533 21.9973V21.6973L149.973 32.4173H149.913Z" fill="#B7966D"/>
<path d="M149.843 32.4171L147.533 22.2971V21.9971L149.913 32.4171H149.843Z" fill="#B8976D"/>
<path d="M149.773 32.4179L147.533 22.5979V22.2979L149.843 32.4179H149.773Z" fill="#B9986E"/>
<path d="M149.703 32.4177L147.533 22.8977V22.5977L149.773 32.4177H149.703Z" fill="#BA996F"/>
<path d="M149.633 32.4175L147.533 23.1875V22.8975L149.703 32.4175H149.633Z" fill="#BB9970"/>
<path d="M149.563 32.4175L147.533 23.4875V23.1875L149.633 32.4175H149.563Z" fill="#BC9A71"/>
<path d="M149.503 32.4173L147.533 23.7873V23.4873L149.563 32.4173H149.503Z" fill="#BD9B72"/>
<path d="M149.433 32.4171L147.533 24.0871V23.7871L149.503 32.4171H149.433Z" fill="#BD9C73"/>
<path d="M149.363 32.4179L147.533 24.3879V24.0879L149.433 32.4179H149.363Z" fill="#BE9D74"/>
<path d="M149.293 32.4177L147.533 24.6877V24.3877L149.363 32.4177H149.293Z" fill="#BF9E75"/>
<path d="M149.223 32.4175L147.533 24.9775V24.6875L149.293 32.4175H149.223Z" fill="#C09F76"/>
<path d="M149.163 32.4175L147.533 25.2775V24.9775L149.223 32.4175H149.163Z" fill="#C1A076"/>
<path d="M149.093 32.4173L147.533 25.5773V25.2773L149.163 32.4173H149.093Z" fill="#C2A077"/>
<path d="M149.023 32.4171L147.533 25.8771V25.5771L149.093 32.4171H149.023Z" fill="#C3A178"/>
<path d="M148.953 32.4179L147.533 26.1779V25.8779L149.023 32.4179H148.953Z" fill="#C4A279"/>
<path d="M148.883 32.4177L147.533 26.4677V26.1777L148.953 32.4177H148.883Z" fill="#C4A37A"/>
</g>
</g>
</svg>
