<svg width="24" height="24" viewBox="0 0 24 24" fill="none" xmlns="http://www.w3.org/2000/svg">
<path d="M3.9995 14.0002C3.81027 14.0008 3.62474 13.9477 3.46446 13.8471C3.30418 13.7465 3.17574 13.6025 3.09405 13.4318C3.01237 13.2611 2.9808 13.0707 3.003 12.8828C3.02521 12.6949 3.10028 12.5171 3.2195 12.3702L13.1195 2.17016C13.1938 2.08444 13.295 2.02652 13.4065 2.0059C13.518 1.98527 13.6332 2.00318 13.7332 2.05667C13.8332 2.11016 13.9121 2.19606 13.9568 2.30027C14.0016 2.40448 14.0096 2.52081 13.9795 2.63016L12.0595 8.65016C12.0029 8.80169 11.9839 8.96468 12.0041 9.12517C12.0243 9.28566 12.0832 9.43884 12.1756 9.57159C12.268 9.70434 12.3913 9.81268 12.5348 9.88732C12.6783 9.96197 12.8377 10.0007 12.9995 10.0002H19.9995C20.1887 9.99952 20.3743 10.0526 20.5345 10.1532C20.6948 10.2538 20.8233 10.3978 20.905 10.5685C20.9866 10.7392 21.0182 10.9296 20.996 11.1175C20.9738 11.3054 20.8987 11.4832 20.7795 11.6302L10.8795 21.8302C10.8052 21.9159 10.704 21.9738 10.5925 21.9944C10.481 22.0151 10.3658 21.9972 10.2658 21.9437C10.1658 21.8902 10.0869 21.8043 10.0422 21.7001C9.99742 21.5958 9.98943 21.4795 10.0195 21.3702L11.9395 15.3502C11.9961 15.1986 12.0151 15.0356 11.9949 14.8752C11.9747 14.7147 11.9158 14.5615 11.8234 14.4287C11.731 14.296 11.6077 14.1876 11.4642 14.113C11.3207 14.0384 11.1613 13.9996 10.9995 14.0002H3.9995Z" fill="#11335E" stroke="#11335E" stroke-width="2" stroke-linecap="round" stroke-linejoin="round"/>
</svg>
